<?xml version="1.0" encoding="UTF-8"?>
<svg xmlns="http://www.w3.org/2000/svg" width="160px" height="160px" viewBox="0 0 160 160" version="1.1">
<g id="surface1">
<rect x="0" y="0" width="160" height="160" style="fill:rgb(0%,99.607843%,85.098039%);fill-opacity:1;stroke:none;"/>
<path style=" stroke:none;fill-rule:nonzero;fill:rgb(1.176471%,1.568627%,16.862745%);fill-opacity:1;" d="M -4.222656 79.980469 L -4.222656 164.183594 L 164.183594 164.183594 L 164.183594 -4.222656 L -4.222656 -4.222656 Z M 83.648438 12.09375 C 83.945312 12.617188 86.34375 29.382812 86.34375 31.03125 C 86.34375 31.328125 88.214844 32.152344 90.457031 32.902344 C 95.773438 34.546875 102.808594 39.414062 106.699219 44.128906 C 110.515625 48.695312 114.558594 56.925781 115.679688 62.539062 C 116.207031 65.234375 116.953125 66.882812 117.554688 66.882812 C 118.75 66.882812 121.59375 73.167969 121.667969 75.863281 C 121.667969 76.910156 120.847656 80.429688 119.871094 83.722656 C 117.105469 92.40625 116.578125 97.71875 118.226562 100.488281 L 119.574219 102.734375 L 113.210938 109.695312 C 104.453125 119.199219 101.011719 123.617188 93.902344 134.09375 C 87.164062 143.972656 82.824219 148.464844 79.980469 148.464844 C 77.136719 148.464844 72.792969 143.972656 66.058594 134.09375 C 58.949219 123.617188 55.503906 119.199219 46.75 109.695312 L 40.386719 102.734375 L 41.734375 100.488281 C 43.378906 97.71875 42.78125 91.65625 39.9375 82.75 L 37.839844 76.386719 L 39.339844 71.898438 C 40.3125 69.277344 41.359375 67.332031 42.109375 67.105469 C 43.003906 66.882812 43.679688 65.386719 44.277344 62.539062 C 45.402344 56.925781 49.441406 48.695312 53.261719 44.128906 C 57.152344 39.414062 64.1875 34.546875 69.351562 32.902344 L 73.394531 31.628906 L 74.664062 22.125 C 75.414062 16.960938 76.164062 12.394531 76.3125 12.09375 C 76.835938 11.347656 83.125 11.347656 83.648438 12.09375 Z M 83.648438 12.09375 "/>
<path style=" stroke:none;fill-rule:nonzero;fill:rgb(1.176471%,1.568627%,16.862745%);fill-opacity:1;" d="M 79.027344 22.726562 C 77.828125 31.035156 77.828125 30.960938 80 30.960938 C 82.171875 30.960938 82.246094 30.4375 80.898438 21.980469 L 79.925781 16.367188 Z M 79.027344 22.726562 "/>
<path style=" stroke:none;fill-rule:nonzero;fill:rgb(1.176471%,1.568627%,16.862745%);fill-opacity:1;" d="M 71.085938 37.027344 C 65.699219 38.898438 61.507812 41.667969 57.238281 46.308594 C 53.796875 50.050781 49.304688 58.808594 48.484375 63.300781 L 48.035156 66.144531 L 52.75 63.972656 C 55.292969 62.773438 57.613281 61.351562 57.839844 60.679688 C 58.585938 58.660156 73.78125 42.191406 74.902344 42.191406 C 75.503906 42.191406 76.925781 42.867188 78.046875 43.613281 C 79.992188 45.035156 80.066406 45.035156 81.863281 43.613281 C 82.910156 42.867188 84.257812 42.191406 84.933594 42.191406 C 86.207031 42.191406 101.324219 58.507812 102.148438 60.679688 C 102.371094 61.351562 104.691406 62.773438 107.238281 63.972656 L 111.953125 66.144531 L 111.503906 63.300781 C 110.605469 58.582031 106.113281 49.902344 102.445312 46.007812 C 93.613281 36.578125 82.015625 33.285156 71.085938 37.027344 Z M 71.085938 37.027344 "/>
<path style=" stroke:none;fill-rule:nonzero;fill:rgb(1.176471%,1.568627%,16.862745%);fill-opacity:1;" d="M 68.765625 54.246094 C 65.472656 57.988281 62.628906 61.804688 62.402344 62.703125 C 61.953125 64.5 49.15625 71.234375 45.863281 71.3125 C 42.644531 71.386719 42.121094 74.976562 44.214844 81.789062 C 46.609375 89.199219 47.734375 97.507812 46.683594 100.125 C 46.011719 101.996094 46.386719 102.597656 52.148438 109.035156 C 59.335938 117.042969 63.375 122.28125 69.738281 131.785156 C 75.203125 139.945312 78.644531 143.988281 80.066406 143.988281 C 81.265625 143.988281 85.605469 138.597656 91.070312 130.515625 C 96.980469 121.757812 101.695312 115.695312 107.984375 108.808594 C 113.523438 102.746094 113.746094 102.371094 113.148438 99.976562 C 112.25 96.757812 113.523438 88.226562 115.769531 81.488281 C 117.9375 75.054688 117.339844 71.386719 114.121094 71.3125 C 110.902344 71.234375 98.03125 64.5 97.582031 62.703125 C 97.207031 60.980469 85.679688 47.585938 84.632812 47.507812 C 84.257812 47.433594 83.136719 48.109375 82.085938 48.929688 C 80.140625 50.429688 80.140625 50.429688 77.746094 48.929688 C 76.398438 48.109375 75.203125 47.433594 75.050781 47.433594 C 74.902344 47.507812 72.058594 50.578125 68.765625 54.246094 Z M 88.523438 58.0625 C 92.117188 62.03125 95.109375 66.671875 94.4375 67.34375 C 94.136719 67.566406 80.214844 73.632812 79.84375 73.632812 C 79.691406 73.632812 79.617188 69.441406 79.617188 64.351562 L 79.617188 55.070312 L 81.714844 54.320312 C 82.835938 53.871094 83.882812 53.496094 84.035156 53.496094 C 84.183594 53.421875 86.203125 55.519531 88.523438 58.0625 Z M 68.691406 73.632812 C 74.378906 76.101562 79.394531 78.121094 79.917969 78.121094 C 80.441406 78.121094 85.53125 76.101562 91.144531 73.632812 L 101.472656 69.214844 L 106.785156 71.910156 C 109.78125 73.332031 112.25 74.679688 112.398438 74.753906 C 113.148438 75.425781 109.183594 81.191406 107.085938 82.539062 C 105.738281 83.359375 103.121094 85.53125 101.324219 87.402344 C 98.328125 90.394531 96.832031 91.21875 88.972656 93.839844 L 79.992188 96.832031 L 71.085938 93.839844 C 63.078125 91.144531 61.804688 90.472656 57.988281 86.878906 C 55.667969 84.632812 53.046875 82.460938 52.148438 81.9375 C 50.652344 81.191406 46.910156 75.351562 47.582031 74.753906 C 47.734375 74.605469 57.386719 69.589844 58.359375 69.140625 C 58.4375 69.140625 63.078125 71.160156 68.691406 73.632812 Z M 108.507812 90.621094 C 107.910156 92.640625 107.160156 95.5625 106.9375 97.207031 C 105.964844 103.046875 104.765625 105.515625 100.050781 110.980469 C 97.429688 114.046875 92.042969 121.234375 88.074219 126.996094 C 84.109375 132.683594 80.589844 137.476562 80.292969 137.699219 C 79.992188 137.847656 77.972656 135.230469 75.800781 131.863281 C 71.382812 125.125 61.429688 112.328125 58.660156 109.929688 C 57.761719 109.109375 55.964844 107.085938 54.617188 105.441406 L 52.296875 102.445312 L 55.515625 104.765625 C 57.238281 106.113281 61.804688 109.855469 65.621094 113.148438 C 71.984375 118.6875 79.242188 124.527344 79.765625 124.527344 C 79.917969 124.527344 79.917969 120.484375 79.84375 115.46875 L 79.691406 106.488281 L 76.996094 103.121094 C 74.003906 99.453125 74.003906 99.378906 77.746094 100.875 C 79.84375 101.773438 80.367188 102.445312 80.367188 104.09375 C 80.367188 106.1875 80.441406 106.1875 83.585938 102.746094 C 86.203125 99.828125 87.777344 98.855469 93.539062 96.832031 C 99.527344 94.738281 100.875 93.914062 104.765625 90.023438 C 107.160156 87.550781 109.257812 85.90625 109.40625 86.355469 C 109.554688 86.730469 109.183594 88.675781 108.507812 90.621094 Z M 108.507812 90.621094 "/>
<path style=" stroke:none;fill-rule:nonzero;fill:rgb(1.176471%,1.568627%,16.862745%);fill-opacity:1;" d="M 58.738281 78.578125 C 58.289062 79.699219 57.992188 80.671875 58.066406 80.75 C 58.214844 80.898438 60.160156 81.722656 62.40625 82.621094 C 64.652344 83.519531 68.019531 85.015625 69.816406 86.0625 C 73.707031 88.234375 73.632812 88.234375 73.632812 86.4375 C 73.632812 83.96875 70.488281 80.972656 65.625 78.800781 C 63.082031 77.605469 60.683594 76.632812 60.3125 76.632812 C 59.9375 76.632812 59.261719 77.53125 58.738281 78.578125 Z M 58.738281 78.578125 "/>
<path style=" stroke:none;fill-rule:nonzero;fill:rgb(1.176471%,1.568627%,16.862745%);fill-opacity:1;" d="M 94.148438 78.800781 C 89.507812 80.972656 86.363281 84.042969 86.363281 86.4375 C 86.363281 88.234375 86.289062 88.234375 90.183594 86.0625 C 91.976562 85.015625 95.347656 83.519531 97.589844 82.621094 C 99.835938 81.722656 101.78125 80.898438 101.933594 80.75 C 102.382812 80.300781 100.285156 76.632812 99.539062 76.632812 C 99.089844 76.707031 96.691406 77.679688 94.148438 78.800781 Z M 94.148438 78.800781 "/>
</g>
</svg>
